<?xml version="1.0" standalone="no"?>
<!DOCTYPE svg PUBLIC "-//W3C//DTD SVG 20010904//EN"
 "http://www.w3.org/TR/2001/REC-SVG-20010904/DTD/svg10.dtd">
<svg version="1.0" xmlns="http://www.w3.org/2000/svg"
 width="359.000000pt" height="280.000000pt" viewBox="0 0 359.000000 280.000000"
 preserveAspectRatio="xMidYMid meet">
<metadata>
Created by potrace 1.16, written by Peter Selinger 2001-2019
</metadata>
<g transform="translate(0.000000,280.000000) scale(0.100000,-0.100000)"
fill="#000000" stroke="none">
<path d="M1340 2105 c0 -167 2 -195 15 -195 13 0 15 26 15 170 l0 170 175 0
175 0 0 25 0 25 -190 0 -190 0 0 -195z"/>
<path d="M1500 590 l0 -90 94 0 c52 0 101 3 110 6 23 9 24 174 1 174 -11 0
-15 -18 -17 -77 l-3 -78 -30 0 -30 0 -3 78 c-4 95 -22 103 -22 8 0 -75 -12
-95 -52 -89 -21 3 -23 8 -26 81 -4 108 -22 97 -22 -13z"/>
</g>
</svg>
